<?xml version="1.0" encoding="UTF-8"?>
<svg id="Layer_5_copy_2" data-name="Layer 5 copy 2" xmlns="http://www.w3.org/2000/svg" xmlns:xlink="http://www.w3.org/1999/xlink" viewBox="0 0 1000 1000">
  <defs>
    <style>
      .cls-1 {
        fill: #ffa511;
      }

      .cls-2 {
        fill: url(#linear-gradient);
      }
    </style>
    <linearGradient id="linear-gradient" x1=".84" y1="500.42" x2="999.84" y2="500.42" gradientUnits="userSpaceOnUse">
      <stop offset="0" stop-color="#0b3d9b"/>
      <stop offset="1" stop-color="#0079cf"/>
    </linearGradient>
  </defs>
  <circle class="cls-2" cx="500.34" cy="500.42" r="499.5"/>
  <g>
    <path class="cls-1" d="M746.94,745.15h0c0,8.92-3.54,17.47-9.85,23.77l-2.89,2.89c-6.3,6.3-14.86,9.85-23.77,9.85h-.63c-9.48,0-18.51-4-24.89-11.02l-185.54-204.28,48.37-53.52,190.47,209.71c5.62,6.19,8.73,14.24,8.73,22.6Z"/>
    <path class="cls-1" d="M536.33,500.28l-48.37,53.51-.05-.05v.12l-195.87,216.69c-6.39,7.07-15.48,11.11-25.01,11.11h-1.6c-8.94,0-17.52-3.55-23.84-9.88l-1.5-1.5c-6.32-6.32-9.88-14.9-9.88-23.84v-1.55c0-8.35,3.1-16.41,8.7-22.61l200.55-221.88.32-.36h-.64l-200.18-220.4c-5.64-6.21-8.76-14.29-8.76-22.67v-3.32c0-8.94,3.55-17.52,9.88-23.84l1.5-1.5c6.32-6.32,14.9-9.88,23.84-9.88h0c9.51,0,18.57,4.01,24.96,11.05l197.45,217.4.07.08,48.21,53.08.21.24Z"/>
    <path class="cls-1" d="M746.94,254.62h0c0,8.14-3.02,15.99-8.48,22.03l-190.89,211.19-48.38-53.52,185.36-205.07c6.23-6.89,15.09-10.83,24.38-10.83h1.82c8.72,0,17.07,3.46,23.24,9.62l3.33,3.33c6.16,6.16,9.62,14.52,9.62,23.24Z"/>
  </g>
</svg>