<?xml version="1.0" encoding="UTF-8"?>
<svg id="Layer_5_copy_2" data-name="Layer 5 copy 2" xmlns="http://www.w3.org/2000/svg" xmlns:xlink="http://www.w3.org/1999/xlink" viewBox="0 0 1628 707">
  <defs>
    <style>
      .cls-1 {
        fill: url(#linear-gradient-2);
      }

      .cls-2 {
        fill: none;
      }

      .cls-3 {
        fill: url(#linear-gradient-3);
      }

      .cls-4 {
        fill: #fff;
        font-family: Poppins-SemiBold, Poppins;
        font-size: 238.24px;
        font-weight: 600;
      }

      .cls-5 {
        fill: url(#linear-gradient);
      }
    </style>
    <linearGradient id="linear-gradient" x1="342.27" y1="492.69" x2="576.5" y2="492.69" gradientUnits="userSpaceOnUse">
      <stop offset="0" stop-color="#0b3d9b"/>
      <stop offset="1" stop-color="#0079cf"/>
    </linearGradient>
    <linearGradient id="linear-gradient-2" x1="87.61" y1="353.42" x2="377.24" y2="353.42" gradientUnits="userSpaceOnUse">
      <stop offset="0" stop-color="#ff5311"/>
      <stop offset=".64" stop-color="#ffa511"/>
      <stop offset="1" stop-color="#ffcf51"/>
    </linearGradient>
    <linearGradient id="linear-gradient-3" x1="342.1" y1="214.43" y2="214.43" xlink:href="#linear-gradient"/>
  </defs>
  <g>
    <line class="cls-2" x1="331.48" y1="404.27" x2="331.43" y2="404.33"/>
    <line class="cls-2" x1="285.59" y1="353.76" x2="285.29" y2="353.42"/>
    <path class="cls-5" d="M576.5,585.32h0c0,8.44-3.35,16.53-9.32,22.49l-2.73,2.73c-5.96,5.96-14.05,9.32-22.49,9.32h-.6c-8.97,0-17.52-3.78-23.54-10.42l-175.55-193.28,45.76-50.64,180.21,198.41c5.32,5.85,8.26,13.48,8.26,21.38Z"/>
    <path class="cls-1" d="M377.24,353.65l-45.76,50.62-.05-.05v.11l-185.32,205.02c-6.05,6.69-14.65,10.51-23.67,10.51h-1.51c-8.46,0-16.58-3.36-22.56-9.34l-1.42-1.42c-5.98-5.98-9.34-14.1-9.34-22.56v-1.46c0-7.9,2.93-15.53,8.24-21.39l189.75-209.92.3-.34h-.6L95.9,144.9c-5.33-5.87-8.29-13.52-8.29-21.45v-3.14c0-8.46,3.36-16.58,9.34-22.56l1.42-1.42c5.98-5.98,14.1-9.34,22.56-9.34h0c8.99,0,17.57,3.8,23.62,10.45l186.82,205.69.06.08,45.61,50.22.2.23Z"/>
    <path class="cls-3" d="M576.5,121.23h0c0,7.7-2.86,15.13-8.03,20.85l-180.61,199.81-45.77-50.64,175.38-194.02c5.89-6.52,14.27-10.24,23.06-10.24h1.72c8.25,0,16.15,3.28,21.98,9.11l3.15,3.15c5.83,5.83,9.11,13.74,9.11,21.98Z"/>
  </g>
  <text class="cls-4" transform="translate(684.26 540.88)"><tspan x="0" y="0">POS</tspan></text>
  <text class="cls-4" transform="translate(695.26 355.7)"><tspan x="0" y="0">XPRESS</tspan></text>
  <line class="cls-2" x1="444.67" y1="528.04" x2="444.6" y2="528.12"/>
  <line class="cls-2" x1="381.05" y1="458" x2="380.63" y2="457.53"/>
</svg>