<?xml version="1.0" encoding="UTF-8"?>
<svg xmlns="http://www.w3.org/2000/svg" xmlns:xlink="http://www.w3.org/1999/xlink" viewBox="0 0 1000 1000">
  <defs>
    <style>
      .cls-1 {
        fill: url(#linear-gradient-2);
      }

      .cls-2, .cls-3 {
        fill: none;
      }

      .cls-4 {
        fill: url(#linear-gradient-3);
      }

      .cls-3 {
        stroke: #231f20;
        stroke-miterlimit: 10;
        stroke-width: .5px;
      }

      .cls-5 {
        fill: url(#linear-gradient);
      }
    </style>
    <linearGradient id="linear-gradient" x1="518.64" y1="754.09" x2="945.97" y2="754.09" gradientUnits="userSpaceOnUse">
      <stop offset="0" stop-color="#0b3d9b"/>
      <stop offset="1" stop-color="#0079cf"/>
    </linearGradient>
    <linearGradient id="linear-gradient-2" x1="54.03" y1="500" x2="582.43" y2="500" gradientUnits="userSpaceOnUse">
      <stop offset="0" stop-color="#ff5311"/>
      <stop offset=".64" stop-color="#ffa511"/>
      <stop offset="1" stop-color="#ffcf51"/>
    </linearGradient>
    <linearGradient id="linear-gradient-3" x1="518.32" y1="246.43" y2="246.43" xlink:href="#linear-gradient"/>
  </defs>
  <g id="Layer_5_copy_2" data-name="Layer 5 copy 2">
    <g>
      <line class="cls-2" x1="498.95" y1="592.77" x2="498.85" y2="592.89"/>
      <line class="cls-2" x1="415.23" y1="500.62" x2="414.68" y2="500"/>
      <path class="cls-5" d="M945.97,923.08h0c0,15.39-6.11,30.15-17,41.03l-4.99,4.99c-10.88,10.88-25.64,17-41.03,17h-1.09c-16.36,0-31.96-6.9-42.96-19.01l-320.27-352.62,83.48-92.38,328.77,361.99c9.7,10.68,15.07,24.59,15.07,39.01Z"/>
      <path class="cls-1" d="M582.43,500.41l-83.49,92.36-.09-.09v.21l-338.09,374.04c-11.03,12.21-26.72,19.17-43.18,19.17h-2.76c-15.44,0-30.24-6.13-41.15-17.05l-2.59-2.59c-10.91-10.91-17.05-25.72-17.05-41.15v-2.67c0-14.42,5.35-28.33,15.02-39.03l346.18-382.99.55-.62h-1.1L69.15,119.56c-9.73-10.71-15.12-24.66-15.12-39.13v-5.73c0-15.44,6.13-30.24,17.05-41.15l2.59-2.59c10.91-10.91,25.72-17.05,41.15-17.05h0c16.41,0,32.05,6.93,43.08,19.07l340.83,375.26.11.14,83.21,91.62.37.41Z"/>
      <path class="cls-4" d="M945.97,76.38h0c0,14.05-5.22,27.61-14.64,38.04l-329.5,364.54-83.51-92.38L838.28,32.59c10.75-11.9,26.04-18.69,42.08-18.69h3.14c15.04,0,29.47,5.98,40.11,16.61l5.75,5.75c10.64,10.64,16.61,25.06,16.61,40.11Z"/>
    </g>
  </g>
  <g id="Dimensions">
    <g id="Manual_Dimension" data-name="Manual Dimension">
      <line class="cls-3" x1="35.92" y1="999.92" x2="-100.08" y2="999.92"/>
      <line class="cls-3" x1="35.92" y1="-.08" x2="-100.08" y2="-.08"/>
    </g>
  </g>
</svg>